<?xml version="1.0" encoding="utf-8"?>
<!-- Generator: Adobe Illustrator 24.2.1, SVG Export Plug-In . SVG Version: 6.00 Build 0)  -->
<svg version="1.1" id="Capa_1" xmlns="http://www.w3.org/2000/svg" xmlns:xlink="http://www.w3.org/1999/xlink" x="0px" y="0px"
	 viewBox="0 0 595.28 841.89" style="enable-background:new 0 0 595.28 841.89;" xml:space="preserve">
<style type="text/css">
	.st0{fill:#575756;}
	.st1{font-family:'StretchProRegular';}
	.st2{font-size:9.388px;}
	.st3{letter-spacing:4.13;}
	.st4{font-size:22.5312px;}
</style>
<g>
	<g>
		<path d="M163.41,215.15c-1.28-5.59-2.45-11.18-3.51-16.77c1.85,0.45,3.7,0.89,5.55,1.31c0.66,3.8,1.36,7.61,2.12,11.41
			c1.55-2.43,3.07-4.87,4.57-7.32c2.22,0.45,4.44,0.88,6.67,1.28c0.66,2.76,1.35,5.51,2.06,8.27c1.97-3.17,3.9-6.37,5.79-9.57
			c1.69,0.26,3.37,0.52,5.06,0.75c-2.9,4.83-5.89,9.61-8.99,14.36c-1.81-0.29-3.61-0.6-5.42-0.92c-0.71-3.25-1.39-6.5-2.03-9.75
			c-0.29-0.06-0.59-0.11-0.88-0.17c-1.67,2.81-3.36,5.6-5.09,8.38C167.34,216.01,165.37,215.59,163.41,215.15z"/>
		<path d="M220.75,222.98c-1.8-0.08-3.6-0.18-5.39-0.29c-0.45-0.98-0.89-1.96-1.33-2.94c-3.79-0.25-7.58-0.57-11.36-0.96
			c-0.59,0.89-1.18,1.79-1.77,2.68c-1.79-0.19-3.58-0.39-5.37-0.61c3.43-4.81,6.74-9.67,9.93-14.58c2.6,0.25,5.19,0.47,7.79,0.66
			C215.62,212.31,218.13,217.66,220.75,222.98z M212.44,216.11c-0.86-1.97-1.71-3.95-2.54-5.93c-0.55-0.04-1.1-0.09-1.65-0.14
			c-1.13,1.82-2.27,3.63-3.43,5.43C207.36,215.71,209.9,215.93,212.44,216.11z"/>
		<path d="M234.79,223.24c-1.31-0.27-2.31-0.61-3.01-1c-0.7-0.39-1.25-0.86-1.66-1.41c-0.4-0.55-0.66-1.05-0.77-1.49
			c-0.11-0.44-0.16-0.91-0.15-1.4c0-0.08,0-0.16,0-0.23c1.88,0.04,3.76,0.06,5.65,0.07c0.12,1.66,1.34,2.51,4.67,2.48
			c0.42,0,0.84-0.01,1.26-0.02c1.09-0.02,1.55-0.07,2.27-0.18c0.72-0.11,1.24-0.25,1.56-0.43c0.32-0.18,0.54-0.36,0.64-0.54
			c0.1-0.18,0.15-0.39,0.15-0.63c-0.01-0.34-0.11-0.6-0.3-0.8c-0.19-0.19-0.63-0.35-1.31-0.49c-0.68-0.13-1.67-0.2-2.95-0.21
			c-0.57,0-1.13-0.01-1.7-0.02c-0.42,0-0.85-0.01-1.27-0.02c-5.62-0.12-8.39-1.75-8.33-4.68c0-0.06,0-0.13,0-0.19
			c0.01-0.51,0.09-0.98,0.23-1.4c0.14-0.43,0.43-0.85,0.84-1.28c0.42-0.42,0.95-0.78,1.61-1.07c0.66-0.29,1.55-0.52,2.66-0.71
			c1.11-0.19,2.41-0.28,3.88-0.29c0.52,0,1.04-0.01,1.56-0.02c1.53-0.02,2.89,0.05,4.07,0.22c1.18,0.17,2.12,0.39,2.83,0.68
			c0.71,0.29,1.3,0.65,1.76,1.08c0.46,0.43,0.79,0.87,0.97,1.31c0.18,0.44,0.29,0.91,0.31,1.42c0,0.07,0.01,0.14,0.01,0.21
			c-1.85,0.08-3.69,0.15-5.54,0.19c-0.04-0.17-0.08-0.31-0.14-0.43c-0.06-0.12-0.19-0.27-0.39-0.47c-0.2-0.19-0.47-0.35-0.79-0.47
			c-0.32-0.12-0.8-0.22-1.43-0.31c-0.63-0.09-1.11-0.13-1.95-0.12c-0.26,0-0.53,0.01-0.79,0.01c-1.27,0.01-2.08,0.09-2.76,0.24
			c-0.68,0.15-1.1,0.3-1.24,0.47c-0.14,0.16-0.22,0.38-0.22,0.67c0,0.27,0.08,0.49,0.24,0.66c0.16,0.17,0.54,0.33,1.15,0.47
			c0.6,0.14,1.46,0.22,2.56,0.22c0.42,0,0.84,0,1.26,0c0.54,0,1.07,0,1.61,0c3.18,0,5.49,0.31,6.94,1c1.45,0.69,2.21,1.81,2.28,3.39
			c0,0.1,0.01,0.2,0.01,0.3c0.02,0.58-0.02,1.1-0.14,1.56c-0.12,0.47-0.39,0.95-0.81,1.45c-0.42,0.5-0.99,0.92-1.71,1.27
			c-0.72,0.35-1.71,0.65-2.97,0.89c-1.26,0.24-2.74,0.38-4.45,0.4c-0.54,0.01-1.09,0.01-1.63,0.02
			C237.62,223.64,236.09,223.51,234.79,223.24z"/>
		<path d="M281.99,204.19c0.34,2.5,0.68,5.01,1.02,7.51c0.09,0.65,0.1,1.32,0.03,2.01c-0.07,0.69-0.29,1.45-0.67,2.29
			c-0.38,0.84-0.9,1.6-1.57,2.28c-0.67,0.68-1.64,1.31-2.91,1.86c-1.27,0.55-2.76,0.93-4.46,1.12c-0.28,0.03-0.56,0.06-0.84,0.09
			c-1.3,0.14-2.49,0.16-3.58,0.07c-1.09-0.1-2.01-0.28-2.77-0.55c-0.76-0.27-1.44-0.62-2.04-1.04c-0.6-0.43-1.08-0.87-1.44-1.33
			c-0.36-0.46-0.67-0.96-0.92-1.51c-0.25-0.54-0.42-1.04-0.53-1.5c-0.1-0.46-0.17-0.91-0.2-1.37c-0.18-2.52-0.36-5.04-0.55-7.56
			c1.75-0.13,3.5-0.28,5.24-0.45c0.21,2.42,0.42,4.84,0.64,7.26c0.05,0.56,0.17,1.07,0.38,1.54c0.2,0.47,0.52,0.91,0.94,1.34
			c0.43,0.43,1.05,0.74,1.87,0.93c0.82,0.19,1.79,0.23,2.9,0.1c1.1-0.12,2.02-0.37,2.77-0.73c0.75-0.36,1.29-0.8,1.63-1.32
			c0.34-0.51,0.56-1.02,0.66-1.52c0.1-0.5,0.12-1.03,0.05-1.58c-0.29-2.41-0.58-4.82-0.87-7.23
			C278.52,204.68,280.26,204.44,281.99,204.19z"/>
		<path d="M299.58,211.94c0.32,1.72,0.63,3.44,0.95,5.16c-1.81,0.36-3.62,0.7-5.43,1.02c-0.87-5.17-1.74-10.35-2.61-15.52
			c4.15-0.74,8.29-1.57,12.42-2.48c5.12-1.14,8.06-0.14,8.84,3.19c0.02,0.07,0.03,0.14,0.05,0.21c0.78,3.34-1.46,5.7-6.76,6.87
			C304.55,210.93,302.06,211.45,299.58,211.94z M298.94,208.46c2.43-0.48,4.86-0.98,7.28-1.52c1.63-0.36,2.33-1.09,2.1-2.16
			c0-0.02-0.01-0.04-0.01-0.06c-0.23-1.09-1.16-1.45-2.77-1.09c-2.4,0.53-4.8,1.03-7.21,1.5
			C298.53,206.24,298.73,207.35,298.94,208.46z"/>
	</g>
	<g>
		<path d="M310.67,193.3h-45.22c-0.05-0.28-0.16-0.56-0.33-0.86c-4.53-8.17-9.04-16.34-13.51-24.56c-0.56-1.01-1.24-1.37-2.33-1.37
			c-7.6,0-15.18-0.04-22.78-0.11c-1.05,0-1.69,0.36-2.22,1.31c-4.38,7.89-8.76,15.75-13.26,23.56c-0.42,0.71-0.65,1.39-0.69,2.03
			h-45.31c-0.05-5.93,4-11.42,10.42-12.2c5.98-0.73,11.16,3.1,12.64,8.6c0.31,1.11,0.87,1.54,1.98,1.52c2.87-0.04,5.75,0,8.6,0.04
			c0.95,0.02,1.53-0.36,2-1.22c3.47-6.36,6.98-12.73,10.53-19.06c0.53-0.94,0.51-1.54-0.27-2.33c-5.51-5.67-10.98-11.38-16.44-17.11
			c-0.73-0.75-1.25-0.79-2.15-0.28c-4.71,2.67-11.15,1.45-14.44-2.68c-3.89-4.86-4.11-11.23-0.56-15.83
			c3.15-4.07,7.26-5.58,12.09-4.52c4.96,1.07,7.95,4.52,9.13,9.54c0.67,2.85,0.22,5.73-1.15,8.34c-0.47,0.9-0.45,1.48,0.27,2.23
			c5.16,5.35,10.29,10.74,15.4,16.15c0.78,0.83,1.24,0.92,1.82-0.21c1.18-2.23,2.51-4.37,3.67-6.59c0.71-1.35,1.67-1.9,3.15-1.86
			c4.11,0.08,8.24,0.02,12.36,0.09c1.22,0.02,1.71-0.32,1.69-1.67c-0.09-3.34-0.05-6.7,0.02-10.05c0.02-1.09-0.31-1.6-1.33-1.93
			c-4.51-1.5-7.29-4.77-8.15-9.48c-0.87-4.88,0.71-9.05,4.51-12.2c1.31-1.09,2.95-1.54,4.4-2.37c1.95,0.02,3.89,0.02,5.84,0.04
			c2.31,1,4.53,2.1,6.2,4.15c5.47,6.74,2.76,16.99-5.33,19.81c-1.29,0.45-1.71,1.03-1.67,2.4c0.07,3.19,0.04,6.4-0.05,9.59
			c-0.04,1.3,0.33,1.76,1.64,1.75c4.02-0.06,8.06,0.08,12.07,0.02c1.73-0.04,2.87,0.53,3.67,2.18c1.05,2.23,2.35,4.34,3.49,6.52
			c0.47,0.9,0.89,0.9,1.56,0.23c5.33-5.48,10.66-10.93,16-16.35c0.56-0.58,0.56-1.05,0.18-1.75c-2.67-5.14-1.71-11.25,2.35-15.1
			c4.02-3.83,9.95-4.37,14.66-1.33c5.44,3.49,7.06,10.97,3.69,16.94c-3.05,5.46-10.42,7.57-15.78,4.43
			c-0.95-0.54-1.51-0.49-2.25,0.3c-5.51,5.67-11.06,11.32-16.6,16.94c-0.65,0.68-0.84,1.18-0.35,2.08
			c3.53,6.4,7.02,12.82,10.47,19.26c0.51,0.96,1.15,1.35,2.2,1.33c2.84-0.04,5.65-0.02,8.47,0.04c1,0.02,1.49-0.36,1.82-1.33
			c1.76-5.43,5.46-8.56,10.98-8.77c6.31-0.24,11.26,4.32,12.11,10.83C310.64,192.72,310.65,193.02,310.67,193.3z"/>
		<path d="M252.79,193.3h-29.11c-0.05-0.28,0-0.62,0.18-0.96c2.36-4.43,4.76-8.84,7.15-13.27c0.29-0.56,0.73-0.66,1.25-0.66
			c4.04,0.04,8.06,0.06,12.09,0.06c0.71,0,1.07,0.3,1.4,0.9c2.22,4.3,4.49,8.58,6.73,12.88C252.7,192.66,252.79,193.02,252.79,193.3
			z"/>
	</g>
	<text transform="matrix(0.9684 0 0 1 115.3209 109.0359)"><tspan x="0" y="0" class="st0 st1 st2 st3">W a t e r  S u p p o r t</tspan><tspan x="191.7" y="0" class="st1 st4"> </tspan></text>
</g>
</svg>
